<?xml version="1.0" encoding="iso-8859-1"?>
<!-- Uploaded to: SVG Repo, www.svgrepo.com, Generator: SVG Repo Mixer Tools -->
<svg height="800px" width="800px" version="1.1" id="Layer_1" xmlns="http://www.w3.org/2000/svg" xmlns:xlink="http://www.w3.org/1999/xlink" 
	 viewBox="0 0 512.002 512.002" xml:space="preserve">
<path style="fill:#C7E9F4;" d="M424.146,512H87.845c-10.345,0-18.731-8.387-18.731-18.731V18.75
	c0-10.345,8.386-18.731,18.731-18.731h212.093c4.967,0,9.731,1.973,13.244,5.486l124.209,124.194
	c3.514,3.513,5.487,8.278,5.487,13.245v350.324C442.877,503.615,434.49,512,424.146,512z"/>
<path style="fill:#80D0E1;" d="M437.39,129.7L313.181,5.506c-3.513-3.513-8.277-5.486-13.244-5.486h-43.942v511.981h168.151
	c10.345,0,18.731-8.387,18.731-18.731V142.945C442.877,137.978,440.902,133.214,437.39,129.7z"/>
<g>
	<path style="fill:#6A82A1;" d="M227.433,161.681h-60.565c-10.345,0-18.731-8.387-18.731-18.731s8.387-18.731,18.731-18.731h60.565
		c10.345,0,18.731,8.387,18.731,18.731C246.164,153.295,237.777,161.681,227.433,161.681z"/>
	<path style="fill:#6A82A1;" d="M345.123,228.775H166.868c-10.345,0-18.731-8.387-18.731-18.731s8.387-18.731,18.731-18.731h178.256
		c10.345,0,18.731,8.387,18.731,18.731S355.468,228.775,345.123,228.775z"/>
	<path style="fill:#6A82A1;" d="M345.123,295.868H166.868c-10.345,0-18.731-8.387-18.731-18.731s8.387-18.731,18.731-18.731h178.256
		c10.345,0,18.731,8.387,18.731,18.731S355.468,295.868,345.123,295.868z"/>
	<path style="fill:#6A82A1;" d="M345.123,362.961H166.868c-10.345,0-18.731-8.387-18.731-18.731
		c0-10.345,8.387-18.731,18.731-18.731h178.256c10.345,0,18.731,8.387,18.731,18.731
		C363.854,354.575,355.468,362.961,345.123,362.961z"/>
	<path style="fill:#6A82A1;" d="M345.123,430.055H166.868c-10.345,0-18.731-8.387-18.731-18.731s8.387-18.731,18.731-18.731h178.256
		c10.345,0,18.731,8.387,18.731,18.731S355.468,430.055,345.123,430.055z"/>
</g>
<path style="fill:#51B3DA;" d="M424.141,161.681H299.942c-10.345,0-18.731-8.387-18.731-18.731V18.751
	c0-16.623,20.185-25.037,31.975-13.244l124.199,124.198C449.144,141.463,440.813,161.681,424.141,161.681z"/>
<g>
	<path style="fill:#36495E;" d="M345.123,191.313h-89.128v37.462h89.128c10.345,0,18.731-8.387,18.731-18.731
		S355.468,191.313,345.123,191.313z"/>
	<path style="fill:#36495E;" d="M345.123,258.406h-89.128v37.462h89.128c10.345,0,18.731-8.387,18.731-18.731
		C363.854,266.792,355.468,258.406,345.123,258.406z"/>
	<path style="fill:#36495E;" d="M345.123,325.499h-89.128v37.462h89.128c10.345,0,18.731-8.387,18.731-18.731
		C363.854,333.886,355.468,325.499,345.123,325.499z"/>
	<path style="fill:#36495E;" d="M345.123,392.593h-89.128v37.462h89.128c10.345,0,18.731-8.387,18.731-18.731
		S355.468,392.593,345.123,392.593z"/>
</g>
</svg>