<svg xmlns="http://www.w3.org/2000/svg" xmlns:xlink="http://www.w3.org/1999/xlink" width="1200" height="750" viewBox="0 0 1200 750">
  <defs>
    <clipPath id="clip-HP_LP_Banner_02_-_National_Child_Protection_Week">
      <rect width="1200" height="750"/>
    </clipPath>
  </defs>
  <g id="HP_LP_Banner_02_-_National_Child_Protection_Week" data-name="HP LP Banner 02 - National Child Protection Week" clip-path="url(#clip-HP_LP_Banner_02_-_National_Child_Protection_Week)">
    <rect width="1200" height="750" fill="#fae0d7"/>
    <path id="Path_156390" data-name="Path 156390" d="M499.111,54.5c-37.55-.252-73.8-12.451-110.146-21.884A784.376,784.376,0,0,0,266.5,11.105c-43.858-4.15-88.617-4.528-131.174,6.54s-82.91,34.21-107.342,69.8c-41.555,60.245-30.24,140.739-8.411,210.04C45.51,379.744,84.662,458.98,142.739,523.879c41.255,46.033,91.221,83.89,140.887,121.5,28.037,21.255,56.275,42.511,88.117,57.855,29.639,14.212,61.682,22.765,93.524,31.191,34.045,9.055,68.09,18.111,102.836,23.771,110.947,17.985,224.5.629,335.344-18.363,39.052-6.666,79.705-14.212,110.746-38.109,24.232-18.615,40.253-45.53,51.668-73.451,14.92-36.474,22.63-78.733,6.408-114.7-24.032-53.076-91.821-76.6-118.357-128.539-34.045-66.534,12.817-148.914-9.112-220.1-9.112-29.682-29.439-54.711-50.667-77.727C843.568,32.235,778.581-15.181,698.876,4.565,631.386,21.293,571.507,55,499.111,54.5Z" transform="translate(56.56 188.155) rotate(-9)" fill="#f5c3b1"/>
    <g id="Group_23112" data-name="Group 23112" transform="translate(261.631 84.497)">
      <g id="Group_23107" data-name="Group 23107" transform="translate(34.251 0)">
        <g id="Group_32567" data-name="Group 32567" transform="translate(0 0)">
          <path id="Path_156002" data-name="Path 156002" d="M513.224,234.9c-.231-12.6-.347-25.209-.116-37.81,1.28-47.49,17.033-126.254,17.155-127.071l-30.812-6.181c-.694,3.261-16.331,82.148-17.734,132.436-.231,12.724-.116,25.44.116,38.157,10.5-1.4,22.52-2.8,31.39.47" transform="translate(-479.009 280.304)" fill="#f2c4ad"/>
          <path id="Path_156003" data-name="Path 156003" d="M560.08,196.276c-1.4-50.179-17.04-129.059-17.734-132.443l-30.812,6.188c.123.817,15.876,79.581,17.156,127.071a1163.2,1163.2,0,0,1-4.9,122.64l31.275,3.036a1173.631,1173.631,0,0,0,5.017-126.493" transform="translate(-292.486 280.298)" fill="#f2c4ad"/>
          <path id="Path_156004" data-name="Path 156004" d="M684.972,382.627h-160.1V168.39l-41.895-16.808c3.738-46.088,49.363-100.467,122.061-100.467S723.36,105.495,727.1,151.582l-42.01,16.924Z" transform="translate(-470.354 201.072)" fill="#d6f2f2"/>
          <path id="Path_156005" data-name="Path 156005" d="M491.064,217.57c-.232-12.955-.347-25.9-.232-38.974.933-34.426,9.449-85.531,14.235-110.971a6.679,6.679,0,0,1-5.133-.817c-4.67,25.672-13.3,76.9-14.235,111.557-.239,12.37-.123,24.732.115,37.224a21.259,21.259,0,0,1,5.249,1.981" transform="translate(-454.246 298.83)" fill="#241f21"/>
          <path id="Path_156006" data-name="Path 156006" d="M486.663,226.241c-.231-12.6-.231-25.325-.116-38.041,1.048-39.205,10.967-96.151,15.522-120.42a6.316,6.316,0,0,1-4.786-2.682c-4.439,23.336-14.82,82.379-15.869,122.987q-.358,19.433,0,38.858c1.75-.231,3.5-.47,5.249-.7" transform="translate(-481.235 288.172)" fill="#241f21"/>
          <path id="Path_156007" data-name="Path 156007" d="M520.833,311.749l-.232,2.566,36.407,3.5.232-2.567a1209.379,1209.379,0,0,0,5.017-126.84C561.209,147.685,550.7,88.172,546.273,65.067a5.937,5.937,0,0,1-5.017,1.287c4.432,23.221,14.7,81.916,15.868,122.054a1154.111,1154.111,0,0,1-4.786,123.7L526.2,309.645a1148.746,1148.746,0,0,0,4.67-120.3c-.933-34.889-9.564-86.7-14.351-112.135l-1.287.817a4.889,4.889,0,0,1-3.615.7c4.67,25.556,13.187,76.429,14.119,110.733a1188.491,1188.491,0,0,1-4.9,122.293" transform="translate(-291.987 287.985)" fill="#241f21"/>
          <path id="Path_156008" data-name="Path 156008" d="M482.594,154.423,524.72,171.34V386.4H689.948V171.34l42.126-16.917-.116-1.865c-3.622-45.278-44.924-93.816-107-101.638a6.077,6.077,0,0,1,1.749,4.316c0,.354-.116.817-.116,1.171,57.293,8.285,95.682,52.739,100.113,94.749l-41.772,16.8V381.383H529.968V167.957l-41.772-16.8c4.316-41.07,40.954-84.6,96.383-94.17a4.971,4.971,0,0,1,.932-5.48,124.338,124.338,0,0,0-66.626,31.968c-20.886,19.259-33.957,44.461-36.06,69.2Z" transform="translate(-472.771 199.857)" fill="#241f21"/>
          <path id="Path_156009" data-name="Path 156009" d="M535.587,56.824A25.74,25.74,0,1,0,511.9,84.361a25.771,25.771,0,0,0,23.691-27.537" transform="translate(-462.86 87.891)" fill="#fccfb2"/>
          <path id="Path_156010" data-name="Path 156010" d="M535.3,58.761a22.644,22.644,0,0,0-8.169-16.1,23.148,23.148,0,0,0-17.155-5.718A23.69,23.69,0,1,0,535.3,58.761l2.1-.116Zm-51.343,3.853a28,28,0,0,1,25.672-29.872,27.509,27.509,0,0,1,20.307,6.651A27.9,27.9,0,0,1,539.5,58.414v.116A28,28,0,0,1,513.716,88.4c-.7,0-1.287.116-1.981.116a27.888,27.888,0,0,1-27.775-25.9" transform="translate(-464.68 86.069)" fill="#241f21"/>
          <path id="Path_156011" data-name="Path 156011" d="M560.751,82.28c.817,20.069-13.186,36.993-31.036,37.81-17.973.933-33.14-14.589-33.957-34.542-.123-1.518-.123-3.036-.123-4.786a88.183,88.183,0,0,1,15.637-2.451l1.171-31.506L545,47.976l2.921,30.689a122.116,122.116,0,0,1,12.832,2.212,5.6,5.6,0,0,0,0,1.4" transform="translate(-391.527 174.223)" fill="#fccfb2"/>
          <path id="Path_156012" data-name="Path 156012" d="M549.587,82.551l-1.634-.231L545.04,51.862l-28.592-1.048-1.164,31.274L513.3,82.2a90.175,90.175,0,0,0-13.765,2.1,25.585,25.585,0,0,0,.115,2.913,36.462,36.462,0,0,0,11.083,24.97,28.192,28.192,0,0,0,20.539,7.584c16.685-.817,29.756-16.685,29.055-35.352-3.5-.817-7.121-1.4-10.736-1.872m-41.54,32.793a39.948,39.948,0,0,1-12.6-27.891c-.116-1.634-.116-3.268-.116-5.017l.116-1.518,1.518-.347a96.982,96.982,0,0,1,14.119-2.335l1.28-31.737,36.523,1.287,2.921,30.92c3.73.463,6.767,1.75,10.381,2.566l3.152,1.164-.585,1.055c0,.231-.116-.354-.116,0v.463c.817,21.124-14,39.089-33.024,40.022H530.1a30.8,30.8,0,0,1-22.057-8.632" transform="translate(-393.433 172.311)" fill="#241f21"/>
          <path id="Path_156013" data-name="Path 156013" d="M564.365,57.063a27.19,27.19,0,1,0-27.19,27.19,27.219,27.219,0,0,0,27.19-27.19" transform="translate(-302.141 68.747)" fill="#fccfb2"/>
          <path id="Path_156014" data-name="Path 156014" d="M566.174,58.877h-2.1a25.05,25.05,0,0,0-25.086-25.093,24.483,24.483,0,0,0-17.733,7.352,25.084,25.084,0,0,0,17.733,42.827,24.483,24.483,0,0,0,17.734-7.352,25.168,25.168,0,0,0,7.352-17.734Zm-27.19,29.4a29.159,29.159,0,0,1-20.77-8.632,28.521,28.521,0,0,1-8.516-20.77,29.274,29.274,0,0,1,29.4-29.294,29.434,29.434,0,0,1,29.409,29.409,29.138,29.138,0,0,1-8.639,20.77,30.527,30.527,0,0,1-20.886,8.516" transform="translate(-303.951 66.94)" fill="#241f21"/>
          <path id="Path_156015" data-name="Path 156015" d="M679.983,110.1c-4.431-55.428-50.642-96.852-104.2-92.768-53.44,4.2-92.645,52.507-88.1,107.935l.933,27.305c4.432,55.428,51.929,96.852,105.368,92.652,53.563-4.316,93.816-52.746,89.385-108.051Z" transform="translate(-443.316 -11.123)" fill="#fccfb2"/>
          <path id="Path_156016" data-name="Path 156016" d="M584.653,20.362c-2.451,0-4.786.116-7.237.239a92.6,92.6,0,0,0-63.243,32.554C496.9,73.339,488.617,99.481,490.837,126.67l.932,27.421a99.56,99.56,0,0,0,33.725,67.443c19.6,17.155,44.338,25.556,69.894,23.452,52.745-4.2,92.066-51.806,87.866-106.186l-3.384-27.19a100.673,100.673,0,0,0-33.139-67.559,93.878,93.878,0,0,0-62.079-23.691m3.268,228.594a97.787,97.787,0,0,1-64.646-24.623,103.534,103.534,0,0,1-34.889-69.894l-.933-27.421a103.428,103.428,0,0,1,24.154-76.082,96.2,96.2,0,0,1,65.578-33.841C603.557,15,629,23.745,649.067,41.6c19.953,17.734,32.084,42.588,34.3,69.894l3.383,27.19c4.439,56.36-36.407,105.6-91.018,110.039-2.682.116-5.249.231-7.815.231" transform="translate(-444.837 -12.76)"/>
          <path id="Path_156017" data-name="Path 156017" d="M489.752,149.851h13.186c-.7.116-9.333-90.2,46.211-79.466a136.079,136.079,0,0,0,36.407,2.451,164.833,164.833,0,0,0,37.1-10.15c52.977-19.953,52.862,71.643,52.862,71.643l8.755-2.335s-2.335-29.286-3.853-39.089c-4.67-30.45-36.877-79.343-104.906-76.314-68.028,8.4-88.8,63.243-88.444,94.055.347,9.919,2.682,39.205,2.682,39.205" transform="translate(-444.916 -14.824)" fill="#bf5936"/>
          <path id="Path_156018" data-name="Path 156018" d="M514.418,83.23c8.4-11.668,20.654-16.216,36.292-13.186a142.427,142.427,0,0,0,35.822,2.451A161.728,161.728,0,0,0,623.286,62.46c12.023-4.547,22.4-3.73,30.812,2.1,21.587,15.052,23.915,58.811,24.154,69.077l5.48-1.518c-.463-5.834-2.451-29.171-3.731-37.687C675.214,63.862,643.008,16.488,576.844,19.4c-64.645,8.169-87.281,59.86-86.811,92.652.116,8.516,1.865,31.506,2.335,37.571h9.911c-1.048-9.564-2.567-45.856,12.138-66.395m-24.971,69.547-.116-1.4c-.115-1.164-2.335-29.4-2.451-39.321-.586-33.841,22.867-87.4,89.616-95.688C645,13.336,678.251,62.46,683.152,94.081c1.518,9.687,3.73,38.041,3.846,39.212l.116,1.28-12.131,3.152v-2.1c0-.463-.115-52.854-22.758-68.491-7.584-5.256-16.917-5.834-27.884-1.749a165.709,165.709,0,0,1-37.579,10.266,139.57,139.57,0,0,1-36.87-2.451c-12.6-2.335-22.751.347-30.226,8.285-18.551,19.953-15.168,65.809-14.235,69.077l-1.4.47.116,1.634-1.048.116Z" transform="translate(-446.131 -16.232)" fill="#241f21"/>
          <path id="Path_156019" data-name="Path 156019" d="M512.882,33.159a10.849,10.849,0,1,1-6.3,14.466,11.107,11.107,0,0,1,6.3-14.466" transform="translate(-328.375 85.067)"/>
          <path id="Path_156020" data-name="Path 156020" d="M502,34.16a10.924,10.924,0,1,1-6.3,14.589A11.2,11.2,0,0,1,502,34.16" transform="translate(-396.139 91.302)"/>
          <path id="Path_156021" data-name="Path 156021" d="M541.1,67c17.148-3.853,26.142-26.019,26.142-26.019L497.8,46.7c1.641,5.249,20.076,25.549,43.3,20.3" transform="translate(-378.052 137.931)" fill="#fff"/>
          <path id="Path_156022" data-name="Path 156022" d="M505.2,79.2c-2.219-4.663-6.188-17.271-6.89-19.483-.463-4.555,1.287-8.4,5.372-8.755l48.307-3.846a8.682,8.682,0,0,1,6.651,2.566,6.514,6.514,0,0,1,1.865,4.663c-.231,10.273-2.8,30.8-10.15,31.506L515.11,88.653c-5.712.116-7.931-5.834-9.912-9.456m78.41-27.183a6.685,6.685,0,0,1,.7-4.9,7.553,7.553,0,0,1,5.95-3.622l48.307-3.846c4.084-.354,5.834,3.145,6.535,7.584a193.166,193.166,0,0,1-1.164,21.7c-.932,4.085-1.749,9.565-7.005,9.565L601.7,81.3c-7.352.586-15.29-19.252-18.087-29.286M500.644,41.626a12.775,12.775,0,0,0-10.15,14.936v.231l.116.231c.232.7,5.834,20.307,8.4,25.556,2.1,4.323,8.053,12.37,15.052,11.668L551.17,91.22c12.955-1.048,14.466-33.14,14.7-39.791a6.632,6.632,0,0,1,5.718-4.67,7.523,7.523,0,0,1,6.883,3.853c1.981,7.114,11.321,37.224,24.038,36.169l37.224-3.145c7-.586,10.736-9.456,11.669-14a250.766,250.766,0,0,0,1.865-26.373v-.586a13.87,13.87,0,0,0-14.235-12.832l-49.71,4.316h-.347L551.64,37.31l-50.179,4.316a1,1,0,0,0-.817,0" transform="translate(-424.917 68.51)"/>
        </g>
      </g>
      <path id="Path_156023" data-name="Path 156023" d="M500.49,31.565l11.9-1.164-.578,14.82-7.005.81Z" transform="translate(-327.036 72.036)" fill="#fff"/>
      <g id="Group_23109" data-name="Group 23109" transform="translate(390.131 86.35)">
        <g id="Group_32568" data-name="Group 32568" transform="translate(0)">
          <path id="Path_156024" data-name="Path 156024" d="M677.65,28.34A145.394,145.394,0,1,1,532.26,173.731,145.391,145.391,0,0,1,677.65,28.34" transform="translate(-519.261 -27.153)" fill="#383838"/>
          <path id="Path_156025" data-name="Path 156025" d="M677.65,28.34A145.394,145.394,0,1,1,532.26,173.731,145.391,145.391,0,0,1,677.65,28.34Z" transform="translate(-519.261 -27.153)" fill="none" stroke="#000" stroke-width="0.048"/>
          <path id="Path_156026" data-name="Path 156026" d="M556.629,51.058a20.838,20.838,0,1,1-21.472,20.185,20.77,20.77,0,0,1,21.472-20.185" transform="translate(-501.272 114.309)" fill="#946659"/>
          <path id="Path_156027" data-name="Path 156027" d="M537.571,114.6h0a77.7,77.7,0,1,1,155.309,5.017l-.932,28.939a77.7,77.7,0,1,1-155.31-5.017Z" transform="translate(-492.249 41.783)" fill="#9c6e5c"/>
          <path id="Path_156028" data-name="Path 156028" d="M564.093,39.413,547.755,72.9a128.034,128.034,0,0,1,13.3,4.555L581.95,45.363a114.714,114.714,0,0,0-17.857-5.95" transform="translate(-422.736 41.825)" fill="#383838"/>
          <path id="Path_156029" data-name="Path 156029" d="M573.821,40.672,550.014,71.014A147.79,147.79,0,0,1,563.9,78.944l24.508-27.421a95.023,95.023,0,0,0-14.589-10.851" transform="translate(-408.664 49.668)" fill="#383838"/>
          <path id="Path_156030" data-name="Path 156030" d="M556.406,39.173c-3.268,11.321-8.516,25.672-10.62,32.67,3.383.47,7.822,1.055,11.09,1.872L570.055,39.99a88.235,88.235,0,0,0-13.649-.817" transform="translate(-435.002 40.193)" fill="#383838"/>
          <path id="Path_156031" data-name="Path 156031" d="M543.833,42.471c.116,9.919,1.865,21,1.865,28.238a67.962,67.962,0,0,1,8.4.347c.355,0,.7.123,1.056.123L562.622,39.2a147.17,147.17,0,0,0-18.789,3.268" transform="translate(-447.168 40.517)" fill="#383838"/>
          <path id="Path_156032" data-name="Path 156032" d="M580.448,42.964,552.21,65.954a84.361,84.361,0,0,1,8.747,7.229l29.178-15.869a96.719,96.719,0,0,0-9.687-14.35" transform="translate(-394.984 63.946)" fill="#383838"/>
          <path id="Path_156033" data-name="Path 156033" d="M578.247,49.016l-22.874,3.969a73.805,73.805,0,0,1,9.8,33.14,68.018,68.018,0,0,1-.116,6.89,70.973,70.973,0,0,0,13.186-44c.116.231.116.116,0,0" transform="translate(-375.28 101.646)" fill="#383838"/>
          <path id="Path_156034" data-name="Path 156034" d="M582.815,45.627l-29.055,13.3a112.024,112.024,0,0,1,9.919,12.254l24.038-7.822a78.419,78.419,0,0,0-4.9-17.734" transform="translate(-385.335 80.535)" fill="#383838"/>
          <path id="Path_156035" data-name="Path 156035" d="M536.86,73.311a116.473,116.473,0,0,1,15.4-17.618l-6.767-11.907" transform="translate(-490.606 69.067)" fill="#383838"/>
          <path id="Path_156036" data-name="Path 156036" d="M538.539,54.353c2.335,4.786,4.67,9.8,6.651,14a65.167,65.167,0,0,1,13.3-7.584L551.025,41.4a72.815,72.815,0,0,0-12.485,12.955" transform="translate(-480.146 54.191)" fill="#383838"/>
          <path id="Path_156037" data-name="Path 156037" d="M540.976,47.134c1.865,7.584,3.969,15.753,5.48,21.818a72.362,72.362,0,0,1,14.126-2.566l-4.9-26.489a90.635,90.635,0,0,0-14.7,7.237" transform="translate(-464.965 44.84)" fill="#383838"/>
          <path id="Path_156038" data-name="Path 156038" d="M573.545,81.358c21.818.586,33.841-23.105,33.841-23.105l-67.443-.586c.933,4.786,12.131,23.105,33.6,23.691" transform="translate(-471.4 155.537)" fill="#fff"/>
          <path id="Path_156039" data-name="Path 156039" d="M550.71,52.779a8.8,8.8,0,1,0,5.719,11.437,8.866,8.866,0,0,0-5.719-11.437" transform="translate(-475.169 122.622)"/>
          <path id="Path_156040" data-name="Path 156040" d="M559.862,53.054a8.8,8.8,0,1,0,5.719,11.437,9.1,9.1,0,0,0-5.719-11.437" transform="translate(-418.158 124.335)"/>
          <path id="Path_156041" data-name="Path 156041" d="M602.3,199.294c-1.287-45.74-15.637-117.738-16.223-120.775l-28.115,5.6c.115.7,14.466,72.7,15.63,115.989a1085.212,1085.212,0,0,1-4.431,111.9l28.47,2.8a1032.322,1032.322,0,0,0,4.67-115.519" transform="translate(-359.171 285.432)" fill="#9c6e5c"/>
          <path id="Path_156042" data-name="Path 156042" d="M602.3,199.294c-1.287-45.74-15.637-117.738-16.223-120.775l-28.115,5.6c.115.7,14.466,72.7,15.63,115.989a1085.212,1085.212,0,0,1-4.431,111.9l28.47,2.8A1032.322,1032.322,0,0,0,602.3,199.294Z" transform="translate(-359.171 285.432)" fill="none" stroke="#000" stroke-width="0.081"/>
          <path id="Path_156043" data-name="Path 156043" d="M530.767,199.379a619.958,619.958,0,0,1,7.468-70.6c4.2-27.306,8.4-48.661,8.755-50.295l28.115,5.6c-.115.7-14.466,72.7-15.63,115.989a1085.435,1085.435,0,0,0,4.432,111.9l-28.469,2.8a1026.806,1026.806,0,0,1-4.67-115.4" transform="translate(-529.32 285.246)" fill="#9c6e5c"/>
          <path id="Path_156044" data-name="Path 156044" d="M530.767,199.379a619.958,619.958,0,0,1,7.468-70.6c4.2-27.306,8.4-48.661,8.755-50.295l28.115,5.6c-.115.7-14.466,72.7-15.63,115.989a1085.435,1085.435,0,0,0,4.432,111.9l-28.469,2.8A1026.806,1026.806,0,0,1,530.767,199.379Z" transform="translate(-529.32 285.246)" fill="none" stroke="#000" stroke-width="0.081"/>
          <path id="Path_156045" data-name="Path 156045" d="M570.422,369.357H716.514V173.9L754.9,158.5c-3.384-42.01-45.039-91.6-111.434-91.6s-107.935,49.594-111.434,91.6l38.388,15.4Z" transform="translate(-520.669 213.053)" fill="#52173d"/>
          <path id="Path_156046" data-name="Path 156046" d="M570.422,369.357H716.514V173.9L754.9,158.5c-3.384-42.01-45.039-91.6-111.434-91.6s-107.935,49.594-111.434,91.6l38.388,15.4Z" transform="translate(-520.669 213.053)" fill="none" stroke="#000" stroke-width="0.081"/>
          <path id="Path_156047" data-name="Path 156047" d="M543.852,92.585c-.7,16.454,10.736,30.342,25.556,31.159,14.82.694,27.306-12.023,27.892-28.477a21.358,21.358,0,0,0,0-3.846,78.871,78.871,0,0,0-12.84-2.1l-1.048-25.9-26.727.933-2.443,25.2c-3.507.47-7.006,1.056-10.5,1.872,0,.347.116.933.116,1.164" transform="translate(-447.771 191.337)" fill="#9c6e5c"/>
          <path id="Path_156048" data-name="Path 156048" d="M571.216,75.1a146.161,146.161,0,0,0-27.653,42.943c-31.39,74.68,3.731,160.681,78.41,191.948a18.067,18.067,0,0,1,4.2-.933,144.193,144.193,0,0,1-91.481-128.589C531.541,100.891,593.62,33.795,673.2,30.635c1.865-.116,3.73-.116,5.6-.116a144.237,144.237,0,0,1,14.119,287.759,4,4,0,0,1,1.28,1.171,19.868,19.868,0,0,1,2.45.925A146.565,146.565,0,0,0,778.223,67.4c-59.166-55.2-151.934-51.7-207.007,7.7" transform="translate(-520.443 -28.176)"/>
          <path id="Path_156049" data-name="Path 156049" d="M535,70.531a22.042,22.042,0,0,0,13.888,21.24,7.3,7.3,0,0,1-.355-.933,2.909,2.909,0,0,1-.115-1.988,19.75,19.75,0,0,1-.932-34.773,3.661,3.661,0,0,1,.347-2.913A22.086,22.086,0,0,0,535,70.531" transform="translate(-502.311 115.021)"/>
          <path id="Path_156050" data-name="Path 156050" d="M535,70.531a22.042,22.042,0,0,0,13.888,21.24,7.3,7.3,0,0,1-.355-.933,2.909,2.909,0,0,1-.115-1.988,19.75,19.75,0,0,1-.932-34.773,3.661,3.661,0,0,1,.347-2.913A22.086,22.086,0,0,0,535,70.531Z" transform="translate(-502.311 115.021)" fill="none" stroke="#000" stroke-width="0.048"/>
          <path id="Path_156051" data-name="Path 156051" d="M560.322,57.437a3.608,3.608,0,0,1,1.163-.116,84.015,84.015,0,0,0-1.279-9.333,7.689,7.689,0,0,1-2.335.578,76.342,76.342,0,0,1,1.287,8.986c.231,0,.7-.116,1.164-.116" transform="translate(-359.719 95.243)"/>
          <path id="Path_156052" data-name="Path 156052" d="M560.322,57.437a3.608,3.608,0,0,1,1.163-.116,84.015,84.015,0,0,0-1.279-9.333,7.689,7.689,0,0,1-2.335.578,76.342,76.342,0,0,1,1.287,8.986C559.39,57.553,559.859,57.437,560.322,57.437Z" transform="translate(-359.719 95.243)" fill="none" stroke="#000" stroke-width="0.048"/>
          <path id="Path_156053" data-name="Path 156053" d="M560.289,53.874a7.325,7.325,0,0,1,2.1-1.164c-1.171-2.689-2.335-5.256-3.738-7.822a17.824,17.824,0,0,1-1.865,1.518c1.28,2.451,2.452,4.9,3.5,7.468" transform="translate(-366.453 75.931)"/>
          <path id="Path_156054" data-name="Path 156054" d="M560.289,53.874a7.325,7.325,0,0,1,2.1-1.164c-1.171-2.689-2.335-5.256-3.738-7.822a17.824,17.824,0,0,1-1.865,1.518C558.069,48.857,559.242,51.308,560.289,53.874Z" transform="translate(-366.453 75.931)" fill="none" stroke="#000" stroke-width="0.048"/>
          <path id="Path_156055" data-name="Path 156055" d="M563.81,50.979c.116-.116.347-.231.47-.347-1.4-1.757-2.805-3.383-4.323-5.017a45.519,45.519,0,0,0-3.384-3.391,5.811,5.811,0,0,1-1.865,1.518c1.164,1.171,2.335,2.219,3.5,3.506,1.4,1.511,2.682,3.029,3.969,4.663a3.952,3.952,0,0,1,1.633-.933" transform="translate(-379.423 59.336)"/>
          <path id="Path_156056" data-name="Path 156056" d="M563.81,50.979c.116-.116.347-.231.47-.347-1.4-1.757-2.805-3.383-4.323-5.017a45.519,45.519,0,0,0-3.384-3.391,5.811,5.811,0,0,1-1.865,1.518c1.164,1.171,2.335,2.219,3.5,3.506,1.4,1.511,2.682,3.029,3.969,4.663A3.952,3.952,0,0,1,563.81,50.979Z" transform="translate(-379.423 59.336)" fill="none" stroke="#000" stroke-width="0.048"/>
          <path id="Path_156057" data-name="Path 156057" d="M560.709,45.337a2.439,2.439,0,0,1,.463-.7,72.742,72.742,0,0,0-7.815-4.316,3.922,3.922,0,0,1-1.28,1.981,83.456,83.456,0,0,1,7.7,4.2,2.085,2.085,0,0,1,.586-.817q0-.173.346-.347" transform="translate(-395.812 47.475)"/>
          <path id="Path_156058" data-name="Path 156058" d="M560.709,45.337a2.439,2.439,0,0,1,.463-.7,72.742,72.742,0,0,0-7.815-4.316,3.922,3.922,0,0,1-1.28,1.981,83.456,83.456,0,0,1,7.7,4.2,2.085,2.085,0,0,1,.586-.817Q560.363,45.511,560.709,45.337Z" transform="translate(-395.812 47.475)" fill="none" stroke="#000" stroke-width="0.048"/>
          <path id="Path_156059" data-name="Path 156059" d="M558.1,41.554a2.6,2.6,0,0,1,.347-.586,70.774,70.774,0,0,0-8.632-1.634,8.52,8.52,0,0,1-1.049,2.335,75.2,75.2,0,0,1,8.871,1.634.425.425,0,0,1,.116-.347v-.116a9.378,9.378,0,0,1,.347-1.287" transform="translate(-416.426 41.339)"/>
          <path id="Path_156060" data-name="Path 156060" d="M558.1,41.554a2.6,2.6,0,0,1,.347-.586,70.774,70.774,0,0,0-8.632-1.634,8.52,8.52,0,0,1-1.049,2.335,75.2,75.2,0,0,1,8.871,1.634.425.425,0,0,1,.116-.347v-.116A9.378,9.378,0,0,1,558.1,41.554Z" transform="translate(-416.426 41.339)" fill="none" stroke="#000" stroke-width="0.048"/>
          <path id="Path_156061" data-name="Path 156061" d="M546.237,42.275a66.5,66.5,0,0,1,8.286-.586,2.647,2.647,0,0,1,.346-1.28c.123-.246.239-.354.355-.586v-.586a72.676,72.676,0,0,0-8.755.586v.116a2.256,2.256,0,0,1-.347,1.164c0,.354.116.7.116,1.171" transform="translate(-432.915 40.741)"/>
          <path id="Path_156062" data-name="Path 156062" d="M546.237,42.275a66.5,66.5,0,0,1,8.286-.586,2.647,2.647,0,0,1,.346-1.28c.123-.246.239-.354.355-.586v-.586a72.676,72.676,0,0,0-8.755.586v.116a2.256,2.256,0,0,1-.347,1.164C546.121,41.458,546.237,41.805,546.237,42.275Z" transform="translate(-432.915 40.741)" fill="none" stroke="#000" stroke-width="0.048"/>
          <path id="Path_156063" data-name="Path 156063" d="M541.194,48.923a82.471,82.471,0,0,1,7-5.6c0-.116-.116-.116-.116-.231a5.237,5.237,0,0,0-1.049-1.749v-.116a71.417,71.417,0,0,0-6.766,5.364,4.743,4.743,0,0,1,.932,2.335" transform="translate(-469.413 53.107)"/>
          <path id="Path_156064" data-name="Path 156064" d="M541.194,48.923a82.471,82.471,0,0,1,7-5.6c0-.116-.116-.116-.116-.231a5.237,5.237,0,0,0-1.049-1.749v-.116a71.417,71.417,0,0,0-6.766,5.364A4.743,4.743,0,0,1,541.194,48.923Z" transform="translate(-469.413 53.107)" fill="none" stroke="#000" stroke-width="0.048"/>
          <path id="Path_156065" data-name="Path 156065" d="M540.061,51.669q1.919-2.971,4.2-5.95c-.115-.116-.231-.354-.347-.47-.354-.578-.7-1.28-1.055-1.75-1.634,2.1-3.268,4.316-4.663,6.535a4.967,4.967,0,0,1,1.865,1.634" transform="translate(-482.283 67.285)"/>
          <path id="Path_156066" data-name="Path 156066" d="M540.061,51.669q1.919-2.971,4.2-5.95c-.115-.116-.231-.354-.347-.47-.354-.578-.7-1.28-1.055-1.75-1.634,2.1-3.268,4.316-4.663,6.535A4.967,4.967,0,0,1,540.061,51.669Z" transform="translate(-482.283 67.285)" fill="none" stroke="#000" stroke-width="0.048"/>
          <path id="Path_156067" data-name="Path 156067" d="M536.473,95.644a78.964,78.964,0,0,0,76.314,81.447h2.567a79.055,79.055,0,0,0,78.88-76.429l.7-22.52a4.625,4.625,0,0,0-2.451,1.048l-.7,21.356a76.606,76.606,0,0,1-76.429,74.094H612.9a76.525,76.525,0,0,1-73.978-79l.933-28.939A79.975,79.975,0,0,1,543.008,47.1c-1.171,1.518-2.335,3.036-3.615,4.439a82.643,82.643,0,0,0-1.988,15.052Z" transform="translate(-493.276 89.705)"/>
          <path id="Path_156068" data-name="Path 156068" d="M536.473,95.644a78.964,78.964,0,0,0,76.314,81.447h2.567a79.055,79.055,0,0,0,78.88-76.429l.7-22.52a4.625,4.625,0,0,0-2.451,1.048l-.7,21.356a76.606,76.606,0,0,1-76.429,74.094H612.9a76.525,76.525,0,0,1-73.978-79l.933-28.939A79.975,79.975,0,0,1,543.008,47.1c-1.171,1.518-2.335,3.036-3.615,4.439a82.643,82.643,0,0,0-1.988,15.052Z" transform="translate(-493.276 89.705)" fill="none" stroke="#000" stroke-width="0.048"/>
          <path id="Path_156069" data-name="Path 156069" d="M543.109,45.423a60.305,60.305,0,0,1,8.054-3.268,19.352,19.352,0,0,1-.47-2.335c-2.682.933-5.249,1.988-7.815,3.152a17.564,17.564,0,0,0,.231,2.451" transform="translate(-453.123 44.361)"/>
          <path id="Path_156070" data-name="Path 156070" d="M543.109,45.423a60.305,60.305,0,0,1,8.054-3.268,19.352,19.352,0,0,1-.47-2.335c-2.682.933-5.249,1.988-7.815,3.152A17.564,17.564,0,0,0,543.109,45.423Z" transform="translate(-453.123 44.361)" fill="none" stroke="#000" stroke-width="0.048"/>
          <path id="Path_156071" data-name="Path 156071" d="M549.752,70.258l1.4.7c3.5,1.75,10.5,5.718,13.765,7.815l.817.586L588.61,53.8a2.156,2.156,0,0,1-1.873-1.518L565.273,76.208c-3.152-1.981-8.285-4.9-11.907-6.767l21.24-27.074a10.453,10.453,0,0,1-1.171-.694,1.6,1.6,0,0,1-.694-.817Z" transform="translate(-410.296 50.814)"/>
          <path id="Path_156072" data-name="Path 156072" d="M549.752,70.258l1.4.7c3.5,1.75,10.5,5.718,13.765,7.815l.817.586L588.61,53.8a2.156,2.156,0,0,1-1.873-1.518L565.273,76.208c-3.152-1.981-8.285-4.9-11.907-6.767l21.24-27.074a10.453,10.453,0,0,1-1.171-.694,1.6,1.6,0,0,1-.694-.817Z" transform="translate(-410.296 50.814)" fill="none" stroke="#000" stroke-width="0.048"/>
          <path id="Path_156073" data-name="Path 156073" d="M545.58,71.177l1.865.231c3.268.47,7.468,1.056,10.5,1.75L559,73.4,571.837,40.6a1.807,1.807,0,0,1-2.451-.347L557.6,70.592c-2.682-.578-5.95-1.048-8.748-1.4.933-3.036,2.219-7.005,3.73-11.437,1.988-5.834,4.085-12.254,5.957-18.088a2.021,2.021,0,0,1-.817.116h-.47a1.974,1.974,0,0,1-1.163-.347c-1.75,5.718-3.854,11.9-5.719,17.618-1.75,5.249-3.268,9.8-4.2,12.955Z" transform="translate(-436.285 41.994)"/>
          <path id="Path_156074" data-name="Path 156074" d="M545.58,71.177l1.865.231c3.268.47,7.468,1.056,10.5,1.75L559,73.4,571.837,40.6a1.807,1.807,0,0,1-2.451-.347L557.6,70.592c-2.682-.578-5.95-1.048-8.748-1.4.933-3.036,2.219-7.005,3.73-11.437,1.988-5.834,4.085-12.254,5.957-18.088a2.021,2.021,0,0,1-.817.116h-.47a1.974,1.974,0,0,1-1.163-.347c-1.75,5.718-3.854,11.9-5.719,17.618-1.75,5.249-3.268,9.8-4.2,12.955Z" transform="translate(-436.285 41.994)" fill="none" stroke="#000" stroke-width="0.048"/>
          <path id="Path_156075" data-name="Path 156075" d="M551.944,65.372l1.28.933a99.539,99.539,0,0,1,8.639,7.121l.585.578L589.87,59.191a7.843,7.843,0,0,1-1.055-2.219L562.8,71.091c-2.22-1.988-4.548-3.969-6.883-5.718L581,44.834l-.231-.231a9.128,9.128,0,0,1-1.518-1.518Z" transform="translate(-396.641 64.693)"/>
          <path id="Path_156076" data-name="Path 156076" d="M551.944,65.372l1.28.933a99.539,99.539,0,0,1,8.639,7.121l.585.578L589.87,59.191a7.843,7.843,0,0,1-1.055-2.219L562.8,71.091c-2.22-1.988-4.548-3.969-6.883-5.718L581,44.834l-.231-.231a9.128,9.128,0,0,1-1.518-1.518Z" transform="translate(-396.641 64.693)" fill="none" stroke="#000" stroke-width="0.048"/>
          <path id="Path_156077" data-name="Path 156077" d="M565.515,86.957a66.486,66.486,0,0,1-.116,6.767l-.231,4.2,2.451-3.5A70.561,70.561,0,0,0,578,72.954a2.018,2.018,0,0,1-.116-1.634v-.231a2.139,2.139,0,0,1-.47-1.048,2.256,2.256,0,0,1-.817-.586,69.1,69.1,0,0,1-8.632,20.3v-2.8a76.775,76.775,0,0,0-9.1-32.323l18.551-3.268a7.115,7.115,0,0,1,0-2.219c0-.116,0-.116.123-.231l-22.4,3.969.817,1.518a72.781,72.781,0,0,1,9.565,32.554" transform="translate(-376.775 101.023)"/>
          <path id="Path_156078" data-name="Path 156078" d="M537.443,71.16a14.366,14.366,0,0,1-.47,2.219l.94-1.287A113.548,113.548,0,0,1,553.08,54.706l.7-.7-5.718-9.919a3.026,3.026,0,0,1-1.518,2.219l4.2,7.237A112.753,112.753,0,0,0,539.076,66.49a2.692,2.692,0,0,1-.47.817c-.231.239-.578.586-.81.817-.123.933-.123,1.988-.354,3.036" transform="translate(-489.901 70.935)" fill="#241f21"/>
          <path id="Path_156079" data-name="Path 156079" d="M538.7,56.27c1.526,3.268,3.036,6.535,4.431,9.449l.709,1.4L545,66.189a62.8,62.8,0,0,1,13.071-7.468l1.048-.47-6.3-16.331a2.03,2.03,0,0,1-1.4.231l-.231.231c-.231.239-.34.354-.585.586l5.371,14a67.52,67.52,0,0,0-11.321,6.42l-4.316-8.986a1.6,1.6,0,0,1-1.164.933,1.455,1.455,0,0,1-.47.933" transform="translate(-479.156 57.442)"/>
          <path id="Path_156080" data-name="Path 156080" d="M538.7,56.27c1.526,3.268,3.036,6.535,4.431,9.449l.709,1.4L545,66.189a62.8,62.8,0,0,1,13.071-7.468l1.048-.47-6.3-16.331a2.03,2.03,0,0,1-1.4.231l-.231.231c-.231.239-.34.354-.585.586l5.371,14a67.52,67.52,0,0,0-11.321,6.42l-4.316-8.986a1.6,1.6,0,0,1-1.164.933A1.455,1.455,0,0,1,538.7,56.27Z" transform="translate(-479.156 57.442)" fill="none" stroke="#000" stroke-width="0.048"/>
          <path id="Path_156081" data-name="Path 156081" d="M566.687,303.629l-.116,1.164,30.921,3.036.115-1.164a1059.425,1059.425,0,0,0,4.555-115.526c-1.049-36.523-10.266-89.731-14.351-111.318a2.584,2.584,0,0,1-2.45.231c4.077,21.471,13.417,74.68,14.35,111.2a1061.585,1061.585,0,0,1-4.439,114.008L569.137,302.7a1063.965,1063.965,0,0,0,4.316-110.74c-.817-31.506-8.748-78.526-12.948-101.87-.817.239-1.518.47-2.335.7,4.316,23.459,12.015,69.9,12.948,101.168a1049.384,1049.384,0,0,1-4.432,111.672" transform="translate(-357.857 293.543)"/>
          <path id="Path_156082" data-name="Path 156082" d="M566.687,303.629l-.116,1.164,30.921,3.036.115-1.164a1059.425,1059.425,0,0,0,4.555-115.526c-1.049-36.523-10.266-89.731-14.351-111.318a2.584,2.584,0,0,1-2.45.231c4.077,21.471,13.417,74.68,14.35,111.2a1061.585,1061.585,0,0,1-4.439,114.008L569.137,302.7a1063.965,1063.965,0,0,0,4.316-110.74c-.817-31.506-8.748-78.526-12.948-101.87-.817.239-1.518.47-2.335.7,4.316,23.459,12.015,69.9,12.948,101.168A1049.384,1049.384,0,0,1,566.687,303.629Z" transform="translate(-357.857 293.543)" fill="none" stroke="#000" stroke-width="0.048"/>
          <path id="Path_156083" data-name="Path 156083" d="M535.213,305.956l.116,1.164,30.92-3.029-.116-1.171A1080.67,1080.67,0,0,1,561.7,191.255c.817-31.159,8.632-77.716,12.832-101.168h-.115a2.3,2.3,0,0,1-2.1-.47H572.2c-4.316,23.452-12.015,70.132-12.948,101.523a1064.957,1064.957,0,0,0,4.316,110.849l-26.134,2.566a1062.375,1062.375,0,0,1-4.439-114c.932-35.475,9.8-86.587,14-109.222-.7-.463-1.4-.933-2.219-1.4-4.085,22.173-13.18,74.448-14.235,110.509a1093.013,1093.013,0,0,0,4.67,115.519" transform="translate(-530.462 294.216)"/>
          <path id="Path_156084" data-name="Path 156084" d="M535.213,305.956l.116,1.164,30.92-3.029-.116-1.171A1080.67,1080.67,0,0,1,561.7,191.255c.817-31.159,8.632-77.716,12.832-101.168h-.115a2.3,2.3,0,0,1-2.1-.47H572.2c-4.316,23.452-12.015,70.132-12.948,101.523a1064.957,1064.957,0,0,0,4.316,110.849l-26.134,2.566a1062.375,1062.375,0,0,1-4.439-114c.932-35.475,9.8-86.587,14-109.222-.7-.463-1.4-.933-2.219-1.4-4.085,22.173-13.18,74.448-14.235,110.509A1093.013,1093.013,0,0,0,535.213,305.956Z" transform="translate(-530.462 294.216)" fill="none" stroke="#000" stroke-width="0.048"/>
          <path id="Path_156085" data-name="Path 156085" d="M531.857,159.4l38.388,15.406V370.727H718.788v-195.8l38.4-15.406-.123-.933c-3.26-40.955-40.723-84.83-97.076-91.72a3.949,3.949,0,0,1-.355,2.335c54.726,6.767,91.25,49.008,94.871,88.683l-38.279,15.406v195.1H572.58v-195.1L534.3,157.886c3.615-38.388,37.933-79.227,89.731-87.866a3.67,3.67,0,0,1-.116-2.451c-53.562,8.871-88.791,51.343-92.059,91.018Z" transform="translate(-521.771 212.854)"/>
          <path id="Path_156086" data-name="Path 156086" d="M531.857,159.4l38.388,15.406V370.727H718.788v-195.8l38.4-15.406-.123-.933c-3.26-40.955-40.723-84.83-97.076-91.72a3.949,3.949,0,0,1-.355,2.335c54.726,6.767,91.25,49.008,94.871,88.683l-38.279,15.406v195.1H572.58v-195.1L534.3,157.886c3.615-38.388,37.933-79.227,89.731-87.866a3.67,3.67,0,0,1-.116-2.451c-53.562,8.871-88.791,51.343-92.059,91.018Z" transform="translate(-521.771 212.854)" fill="none" stroke="#000" stroke-width="0.048"/>
          <path id="Path_156087" data-name="Path 156087" d="M547.523,72.815l1.4.347a136.782,136.782,0,0,1,13.194,4.555l.925.347,20.192-31.036-.231.116a1.811,1.811,0,0,1-2.1-.933L562.112,75.035c-3.506-1.4-7.938-2.921-11.206-3.853l14.936-30.573h-.116c-.586-.231-1.164-.463-1.75-.7l-.354-.347Z" transform="translate(-424.181 42.741)"/>
          <path id="Path_156088" data-name="Path 156088" d="M547.523,72.815l1.4.347a136.782,136.782,0,0,1,13.194,4.555l.925.347,20.192-31.036-.231.116a1.811,1.811,0,0,1-2.1-.933L562.112,75.035c-3.506-1.4-7.938-2.921-11.206-3.853l14.936-30.573h-.116c-.586-.231-1.164-.463-1.75-.7l-.354-.347Z" transform="translate(-424.181 42.741)" fill="none" stroke="#000" stroke-width="0.048"/>
          <path id="Path_156089" data-name="Path 156089" d="M543.675,43.221c.116,4.67.586,9.449,1.049,13.888s.817,8.516.817,11.784V70.18h1.171a66.237,66.237,0,0,1,8.285.347,1.042,1.042,0,0,1,.578.116l1.518.116,7.237-30.689a1.8,1.8,0,0,1-2.22-.578h-.116l-6.766,28.585c-2.451-.231-4.9-.347-7.237-.347h-.115c-.116-3.152-.463-6.89-.817-10.736-.347-4.439-.817-9.34-1.049-14a5.518,5.518,0,0,1-1.988.347.572.572,0,0,1-.347-.116" transform="translate(-448.152 42.311)"/>
          <path id="Path_156090" data-name="Path 156090" d="M543.675,43.221c.116,4.67.586,9.449,1.049,13.888s.817,8.516.817,11.784V70.18h1.171a66.237,66.237,0,0,1,8.285.347,1.042,1.042,0,0,1,.578.116l1.518.116,7.237-30.689a1.8,1.8,0,0,1-2.22-.578h-.116l-6.766,28.585c-2.451-.231-4.9-.347-7.237-.347h-.115c-.116-3.152-.463-6.89-.817-10.736-.347-4.439-.817-9.34-1.049-14a5.518,5.518,0,0,1-1.988.347A.572.572,0,0,1,543.675,43.221Z" transform="translate(-448.152 42.311)" fill="none" stroke="#000" stroke-width="0.048"/>
          <path id="Path_156091" data-name="Path 156091" d="M540.944,49.9c1.634,6.42,3.268,12.955,4.547,18.088l.355,1.28,1.279-.347a69.33,69.33,0,0,1,13.887-2.451l1.287-.116L557.514,40.1a1.9,1.9,0,0,1-1.981,1.287h-.239l4.2,22.751a67.459,67.459,0,0,0-11.784,2.1c-1.279-4.9-2.8-10.974-4.316-16.924a1.834,1.834,0,0,1-.817.47,1.989,1.989,0,0,1-1.634.116" transform="translate(-465.164 46.092)"/>
          <path id="Path_156092" data-name="Path 156092" d="M540.944,49.9c1.634,6.42,3.268,12.955,4.547,18.088l.355,1.28,1.279-.347a69.33,69.33,0,0,1,13.887-2.451l1.287-.116L557.514,40.1a1.9,1.9,0,0,1-1.981,1.287h-.239l4.2,22.751a67.459,67.459,0,0,0-11.784,2.1c-1.279-4.9-2.8-10.974-4.316-16.924a1.834,1.834,0,0,1-.817.47A1.989,1.989,0,0,1,540.944,49.9Z" transform="translate(-465.164 46.092)" fill="none" stroke="#000" stroke-width="0.048"/>
          <path id="Path_156093" data-name="Path 156093" d="M553.477,58.381l1.164,1.287a88.44,88.44,0,0,1,9.8,12.131l.47.817,22.049-7.237a8.958,8.958,0,0,1-.347-2.451L565.847,69.7a118.286,118.286,0,0,0-8.4-10.5l24.616-11.321c-.232-.463-.463-.933-.694-1.4a6.353,6.353,0,0,1-.239-.817Z" transform="translate(-387.091 80.765)"/>
          <path id="Path_156094" data-name="Path 156094" d="M553.477,58.381l1.164,1.287a88.44,88.44,0,0,1,9.8,12.131l.47.817,22.049-7.237a8.958,8.958,0,0,1-.347-2.451L565.847,69.7a118.286,118.286,0,0,0-8.4-10.5l24.616-11.321c-.232-.463-.463-.933-.694-1.4a6.353,6.353,0,0,1-.239-.817Z" transform="translate(-387.091 80.765)" fill="none" stroke="#000" stroke-width="0.048"/>
          <path id="Path_156095" data-name="Path 156095" d="M546.77,81.094c-1.518-3.738-3.737-13.888-4.085-15.753,0-3.5,1.519-6.535,4.779-6.535h38.157a6.153,6.153,0,0,1,5.025,2.566,5.349,5.349,0,0,1,1.163,3.738c-.932,8.046-4.2,24.038-10.034,24.038l-27.891-.116c-4.547-.123-5.95-4.9-7.114-7.938M609.9,64.871a4.794,4.794,0,0,1,.932-3.73,6.6,6.6,0,0,1,4.9-2.566h38.157c3.152,0,4.316,2.8,4.663,6.412a137.131,137.131,0,0,1-2.328,16.924c-.933,3.029-1.988,7.352-6.073,7.114l-27.884-.116c-5.957.116-10.851-15.984-12.369-24.038M545.483,51.338A10.054,10.054,0,0,0,536.5,62.3v.47c.116.586,3.152,16.216,4.9,20.539,1.4,3.5,5.48,10.15,10.967,10.15l29.294-.116c10.15,0,13.418-24.97,14-30.226a5.18,5.18,0,0,1,4.779-3.268,5.781,5.781,0,0,1,5.14,3.506c1.164,5.711,6.528,29.872,16.57,29.872l29.287-.116c5.48,0,8.986-6.658,10.15-10.273a199.7,199.7,0,0,0,3.152-20.654v-.463a10.9,10.9,0,0,0-10.266-10.974l-39.328.123H614.8l-29.41.116-39.675.116c.116.231,0,.231-.231.231" transform="translate(-493.214 112.461)" fill="#1c4a54"/>
        </g>
      </g>
      <path id="Path_156096" data-name="Path 156096" d="M554.2,70.267l17.271-15.051.7-4.786L553.735,58.6Z" transform="translate(4.647 196.803)" fill="#1c4a54"/>
      <g id="Group_23111" data-name="Group 23111" transform="translate(0 200.988)">
        <g id="Group_32566" data-name="Group 32566" transform="translate(0 0)">
          <path id="Path_156097" data-name="Path 156097" d="M543.695,84.442c-.7,17.032,11.322,31.621,26.72,32.323H571.7a25.657,25.657,0,0,0,17.734-7.121,32.442,32.442,0,0,0,10.157-22.635v-.817a14.338,14.338,0,0,0,0-3.152l-.123-.817-.817-.231A83.832,83.832,0,0,0,586.638,80l-.586-14.936a1.71,1.71,0,0,1-1.518.116,2.086,2.086,0,0,1-.933.239l.7,16.686,1.049.116a79.5,79.5,0,0,1,11.784,1.865v2.921a30.166,30.166,0,0,1-9.333,20.886,24.128,24.128,0,0,1-17.271,6.42c-14.119-.7-24.97-14.119-24.385-29.872V84.2c3.036-.694,5.132-.933,8.87-1.511l1.4-.239,1.756-17.618a17.488,17.488,0,0,1-2.458-.116L554.2,80.357a66.958,66.958,0,0,0-9.687,1.75l-.817.231-.116.933v.817a.44.44,0,0,0,.116.354" transform="translate(-58.619 84.835)"/>
          <path id="Path_156098" data-name="Path 156098" d="M541.021,52.549a71.656,71.656,0,0,0-3.969,19.136l-.347,5.6,3.261-4.67A113.573,113.573,0,0,1,555.14,55.231l.925-.817-5.949-10.381v.116a1.946,1.946,0,0,1-.47.586,3.275,3.275,0,0,1-1.619,2.1l4.085,7a121.558,121.558,0,0,0-11.09,12.254" transform="translate(-101.441 -44.033)"/>
          <path id="Path_156099" data-name="Path 156099" d="M541.021,52.549a71.656,71.656,0,0,0-3.969,19.136l-.347,5.6,3.261-4.67A113.573,113.573,0,0,1,555.14,55.231l.925-.817-5.949-10.381v.116a1.946,1.946,0,0,1-.47.586,3.275,3.275,0,0,1-1.619,2.1l4.085,7a121.558,121.558,0,0,0-11.09,12.254" transform="translate(-101.441 -44.033)" fill="none" stroke="#000" stroke-width="0.048"/>
          <path id="Path_156100" data-name="Path 156100" d="M554.879,70.3A18.524,18.524,0,0,1,573.43,51.745,18.844,18.844,0,0,1,590.817,71.7v.116a18.525,18.525,0,0,1-18.551,18.551A18.79,18.79,0,0,1,554.879,70.3" transform="translate(11.499 4.008)" fill="#9c6e5c"/>
          <path id="Path_156101" data-name="Path 156101" d="M564.728,92.473a16.3,16.3,0,0,0,5.82-.4l.542-.2c9.529-2.733,14.907-13.454,12.159-24.2-2.8-11-13.063-17.943-22.859-15.536a15.481,15.481,0,0,0-4.106,1.619l.159.289a3.685,3.685,0,0,1,.853,1.7,11.546,11.546,0,0,1,3.159-1.28l.513-.1c8.769-2.219,17.9,4.041,20.423,13.873,2.473,9.572-2.328,19.115-10.794,21.544a.929.929,0,0,1-.513.1,13.545,13.545,0,0,1-5.415.267,7.1,7.1,0,0,1,.058,2.321" transform="translate(20.525 3.498)"/>
          <path id="Path_156102" data-name="Path 156102" d="M735.443,185.695c-5.6-35.822-22.751-131.51-112.721-137.46A43.3,43.3,0,0,0,617.474,48c-1.872,0-6.651.347-6.651.347-89.97,6.3-105.492,102.1-110.856,138.045-5.017,39.791.586,89.847.586,89.847,28.469,3.506,54.372,36.762,77.947,37.925,32.207,1.634,59.628,1.634,82.263.7a101.859,101.859,0,0,0,75.728-39.205c-.347-.123,4.2-50.179-1.049-89.97" transform="translate(-343.302 -19.447)" fill="#c75978"/>
          <path id="Path_156103" data-name="Path 156103" d="M630.839,81.54s-59.968,1.518-59.86,1.518v-1.4l-70.017,9.217,6.535,73.4-5.95,110.856,61.378.231h86.934l53.563-.231-17.741-115.41,99.9-16.1s7.7-28.007,1.973-48.076c0,0-91.365-8.4-134.308-12.254-12.832-1.048-22.4-1.749-22.4-1.749" transform="translate(-324.098 189.613)" fill="#5eccc9"/>
          <path id="Path_156104" data-name="Path 156104" d="M570.375,82.94l-8.632-1.518a20.279,20.279,0,0,1-40.376-.116l-10.736,1.749a26.924,26.924,0,0,0,.116,4.316c.817,18.319,16.917,28.708,31.39,28.592,16.454-.116,29.287-13.3,28.585-31.744-.347-.347-.232-1.048-.347-1.28" transform="translate(-264.162 188.156)" fill="#4ab0ab"/>
          <path id="Path_156105" data-name="Path 156105" d="M549.515,106.394l-1.75-17.618-1.048-10.5-30-1.048-.462,12.131-.586,16.693-3.615.578a20.28,20.28,0,0,0,40.376.116Z" transform="translate(-254.97 162.721)" fill="#fccfb2"/>
          <path id="Path_156106" data-name="Path 156106" d="M677.13,167.74a87.065,87.065,0,0,1-174.1,3.268l-.585-32.438a87.065,87.065,0,0,1,174.1-3.268Z" transform="translate(-314.961 -7.674)" fill="#fccfb2"/>
          <path id="Path_156107" data-name="Path 156107" d="M522.236,243.806l-19.02,20.307S499.6,174.259,504.5,125.367c0,0,14.35-47.259,26.72-57.409,30.92-26.019,57.994-19.368,70.364-13.3a15.4,15.4,0,0,1,6.536,5.017c-.123-.116-80.753,5.487-85.886,184.133" transform="translate(-318.059 -12.212)" fill="#c75978"/>
          <path id="Path_156108" data-name="Path 156108" d="M505.966,87.637s59.744,66.279,152.859,69.894c22.643.933,19.953-29.286-10.035-66.858C576.923.819,505.966,87.637,505.966,87.637" transform="translate(-292.926 -7.267)" fill="#c75978"/>
          <path id="Path_156109" data-name="Path 156109" d="M520.512,78.164a9.854,9.854,0,1,0,6.767-12.6,10,10,0,0,0-6.767,12.6" transform="translate(-205.335 87.838)"/>
          <path id="Path_156110" data-name="Path 156110" d="M509.241,78.2a9.855,9.855,0,1,0,6.767-12.6,10.086,10.086,0,0,0-6.767,12.6" transform="translate(-275.279 88.043)"/>
          <path id="Path_156111" data-name="Path 156111" d="M596.72,71.125l-10.266.231c-6.189,4.786-18.905,8.169-33.726,8.4-14.119.239-26.72-2.566-33.255-6.882l-9.572.231a90.112,90.112,0,0,0,18.673,19.02c5.834-3.5,15.052-6.065,25.787-6.651,10.736-.7,20.416.817,26.72,3.5A88.033,88.033,0,0,0,596.72,71.125" transform="translate(-268.407 124.734)" fill="#b22e66"/>
          <path id="Path_156112" data-name="Path 156112" d="M512.469,79.915c21.349,15.29,40.138,7.121,52.392-3.152-6.181-2.8-15.869-4.2-26.72-3.5-10.5.586-19.722,3.152-25.672,6.651" transform="translate(-252.416 136.946)" fill="#e35c8f"/>
          <path id="Path_156113" data-name="Path 156113" d="M578.09,71.157l-66.865,1.518c6.651,4.316,19.021,7.121,33.256,6.882,14.589-.231,27.305-3.615,33.609-8.4" transform="translate(-260.166 124.933)" fill="#fff"/>
          <path id="Path_156114" data-name="Path 156114" d="M517.776,65.175c.933-3.969-8.516-7.468-8.516-7.468s13.88-4.316,21.7,4.786C543.1,47.2,555.7,43.819,577.636,46.855c-16.1,7.237-21.117,15.052-21.117,15.052L532.6,72.99c-.116.123-11.437-5.364-14.82-7.815" transform="translate(-272.406 -32.765)" fill="#c75978"/>
          <path id="Path_156115" data-name="Path 156115" d="M566.218,56.247,563.066,74.1l-16.1-13.425v19.5c-.116,0-22.758-9.449-34.188-15.644,0,0,15.051,24.623,43.991,30.219l-1.055-16.91,14.821,13.295,1.749-19.6,19.259,6.181Z" transform="translate(-250.491 32.053)" fill="#c4596b"/>
          <path id="Path_156116" data-name="Path 156116" d="M528.1,216.107l-44.924-16.1c30.689-16.107,82.379-58.7,100-85.184,13.071-19.49,32.207-11.09,32.207-11.321L644.32,88.8c-.231.933-7.352,43.637-23.568,67.79A136.291,136.291,0,0,1,528.1,216.107" transform="translate(-434.894 234.864)" fill="#4ab0ab"/>
          <path id="Path_156117" data-name="Path 156117" d="M699.833,156.815a126.008,126.008,0,0,0-11.784-14.35c-22.874-24.276-57.293-42.01-100.706-41.894-14.343.043-26.669.412-41.056,6.991-3.9,1.786-8.8,1.634-12.594,3.7-3.441,1.88-9.709,6.694-13.013,8.74-17.423,10.786-31.506,26.756-42.039,36.812H699.833Z" transform="translate(-463.138 308.159)" fill="#5766db"/>
          <path id="Path_156118" data-name="Path 156118" d="M489.051,104.671s10.266,22.99,41.425,19.953c26.6-2.566,32.669-19.021,32.669-19.021l-14.82-3.969-43.991-1.048Z" transform="translate(-398.296 308.259)" fill="#2e3db5"/>
          <path id="Path_156119" data-name="Path 156119" d="M513.132,105c-12.138,0-21.934-4.67-21.934-6.767v20.185c0,2.219,9.8,6.767,21.934,6.767s21.934-4.779,21.934-6.882V98.117c-.115,2.212-9.911,6.882-21.934,6.882" transform="translate(-384.922 292.878)" fill="#87573d"/>
          <path id="Path_156120" data-name="Path 156120" d="M551.705,102.5a25.069,25.069,0,1,1-28.238-21.587A25.088,25.088,0,0,1,551.705,102.5" transform="translate(-318.943 184.41)" fill="#87573d"/>
          <path id="Path_156121" data-name="Path 156121" d="M670.72,179.92c7.352,53.563-29.055,102.687-80.745,109.8s-100-30.45-107.357-84.013l-2.451-26.6c-7.352-53.555,28.007-102.571,79.7-109.685S658.7,100.107,666.05,153.547Z" transform="translate(-459.66 108.736)" fill="#87573d"/>
          <path id="Path_156122" data-name="Path 156122" d="M526.413,106.515a25.069,25.069,0,1,1-28.238-21.587,25.088,25.088,0,0,1,28.238,21.587" transform="translate(-476.497 209.446)" fill="#87573d"/>
          <path id="Path_156123" data-name="Path 156123" d="M479.092,164.825c-2.219-29.872,14.82-84.251,80.4-96.151,65.809-6.651,99.766,38.974,106.07,68.144,1.981,9.333,5.95,37.694,5.95,37.694l-10.15,2.212s-8.054-87.628-58.341-65.339c-11.205,4.894-24.739,10.266-35.475,11.9-11.437,1.518-19.136.7-31.39-.933-54.5-7.237-37.925,79.111-38.041,79.111l-14.473,1.287s-3.962-28.354-4.547-37.925" transform="translate(-461.499 105.396)" fill="#706154"/>
          <path id="Path_156124" data-name="Path 156124" d="M479.043,164.825c-2.219-29.872,14.82-84.251,80.4-96.151,65.809-6.651,99.766,38.974,106.07,68.144,1.981,9.333,5.95,37.694,5.95,37.694l-10.15,2.212s-8.054-87.628-58.349-65.339c-11.2,4.894-24.732,10.266-35.468,11.9-11.437,1.518-19.136.7-31.39-.933-54.495-7.237-37.926,79.111-38.041,79.111l-14.474,1.287S479.744,174.4,479.043,164.825Z" transform="translate(-461.804 105.396)" fill="none" stroke="#241f21" stroke-miterlimit="10" stroke-width="0.484"/>
          <path id="Path_156125" data-name="Path 156125" d="M499.445,100.565a10.542,10.542,0,1,0,5.249-14.35,10.933,10.933,0,0,0-5.249,14.35" transform="translate(-339.607 213.379)"/>
          <path id="Path_156126" data-name="Path 156126" d="M487.534,102.405a10.542,10.542,0,1,0,5.248-14.35,10.93,10.93,0,0,0-5.248,14.35" transform="translate(-413.811 224.841)"/>
          <path id="Path_156127" data-name="Path 156127" d="M573.126,91.472l-9.919,1.749c-5.364,5.834-17.156,11.321-31.506,13.772-13.649,2.335-26.257,1.4-33.255-2.1l-9.333,1.634a86.609,86.609,0,0,0,20.77,16.8c5.133-4.424,13.765-8.509,23.922-10.844,10.266-2.335,19.83-2.335,26.365-.354a73.367,73.367,0,0,0,12.955-20.654" transform="translate(-397.91 251.484)" fill="#b22e66"/>
          <path id="Path_156128" data-name="Path 156128" d="M492.018,106.755c22.874,12.485,39.906,1.287,50.295-11.2-6.3-1.872-15.869-1.988-26.373.347-10.15,2.335-18.789,6.42-23.922,10.851" transform="translate(-379.814 268.176)" fill="#e35c8f"/>
          <path id="Path_156129" data-name="Path 156129" d="M554.966,91.731,490.436,103.4c7.005,3.383,19.367,4.432,33.255,2.1,14-2.451,25.787-7.938,31.274-13.772" transform="translate(-389.669 253.097)" fill="#fff"/>
          <path id="Path_156130" data-name="Path 156130" d="M489.208,143.284l18.319,9.217s83.666-1.634,120.659-22.52c17.849-10.15,21-18.2,24.385-58.927-36.754-2.1-70.364,18.319-70.364,18.319a146.625,146.625,0,0,1,27.891-25.2c-31.274,0-44.576,8.4-64.3,27.183,2.566-6.3,5.6-10.5,17.387-22.288-25.9,4.208-46.087,13.656-56.36,46.912,0,0-15.052-5.834-9.565-20.069-12.955,7.468-28.477,25.2-8.054,47.374" transform="translate(-458.899 81.427)" fill="#383838"/>
          <path id="Path_156131" data-name="Path 156131" d="M489.208,143.284l18.319,9.217s83.666-1.634,120.659-22.52c17.849-10.15,21-18.2,24.385-58.927-36.754-2.1-70.364,18.319-70.364,18.319a146.625,146.625,0,0,1,27.891-25.2c-31.274,0-44.576,8.4-64.3,27.183,2.566-6.3,5.6-10.5,17.387-22.288-25.9,4.208-46.087,13.656-56.36,46.912,0,0-15.052-5.834-9.565-20.069C484.307,103.378,468.785,121.112,489.208,143.284Z" transform="translate(-458.899 81.427)" fill="none" stroke="#000" stroke-width="0.161"/>
          <path id="Path_156132" data-name="Path 156132" d="M491.359,143.133l16.1,8.639s84.367-.824,121.36-21.71c17.849-10.15,21-18.2,24.385-58.927-36.754-2.1-70.364,18.319-70.364,18.319a147.111,147.111,0,0,1,27.891-25.2c-31.274,0-44.576,8.4-64.3,27.19,2.573-6.3,5.6-10.5,17.387-22.288-25.9,4.2-46.088,13.649-56.361,46.9,0,0-15.052-5.834-9.564-20.069C485.055,103.458,466.735,124.112,491.359,143.133Z" transform="translate(-459.647 81.926)" fill="none" stroke="#241f21" stroke-miterlimit="10" stroke-width="0.484"/>
          <path id="Path_156133" data-name="Path 156133" d="M582.3,104.619,530.84,96.565a22.579,22.579,0,0,1,24.971-19.953c.231,0,.47.116.81.116l5.95.933A24,24,0,0,1,582.3,104.619" transform="translate(-137.976 158.018)" fill="#fccfb2"/>
          <path id="Path_156134" data-name="Path 156134" d="M512.778,64.532s10.851,13.779,19.021,19.49c10.265,7.229,24.854,10.728,24.854,10.728l-1.048-16.91,14.82,13.295,1.749-19.6,19.252,6.181L566.1,56.247,562.957,74.1,546.966,60.809V80.176Z" transform="translate(-250.491 32.053)" fill="#d98fa6"/>
          <path id="Path_156135" data-name="Path 156135" d="M597.937,432.13l-.231,19.144m-79.7-20.654-24.276,19.6m28.238-7.7s5.256,9.1,23.221,8.4,22.758-7.352,22.758-7.352m-81.917,9.456,21.819-7.237a32.051,32.051,0,0,0,3.766,5.487c5.241,6.318,16.273,15.753,35.092,15.052,28.123-1.048,35.244-19.606,35.244-19.606m44.454-88.213s-7.584,35.706-17.5,55.659a123.808,123.808,0,0,1-24.616,33.024M663.516,304.01s1.048,34.419,33.609,32.67c28-1.511,26.836-32.67,26.836-32.67m-49.825-1.75s2.219,20.3,21.7,18.435c17.039-1.634,18.673-18.319,18.673-18.319m37.918,3.969-40.723-4.316s-1.279-14.242-2.451-22.527c0,0,10.851-1.511,29.756-11.43,35.359-18.558,40.022-62.079,40.962-70.017A42.8,42.8,0,0,0,778.8,183.12c-71.528-2.913-130.224-52.739-130.224-52.739s-22.866,47.953-26.835,115.981c8.863,11.206,26.835,29.525,56.476,34.542-.354,10.851-.47,21-.47,21l-34.3,4.554M575.533,189.655c.586-24.038,21.7-71.766,29.525-82.733,7.583-10.851,29.517-36.523,57.408-41.656,0,0,.817-4.555-8.516-7.468,9.8,0,14.35-1.518,21.7,4.786,17.387-15.406,23.452-18.9,46.673-15.637C712.177,49.043,701.209,62,701.209,62s34.3,4.2,55.421,23.337c19.961,18.088,50.064,58.811,55.313,138.393" transform="translate(-417.097 -32.857)" fill="none" stroke="#241f21" stroke-miterlimit="10" stroke-width="0.484"/>
          <path id="Path_156136" data-name="Path 156136" d="M697.954,135.772c-21.471-18.789-51.344-31.976-87.635-31.86-36.053.123-65.578,13.071-87.05,31.86Z" transform="translate(-185.139 328.971)" fill="#ed8766"/>
          <path id="Path_156137" data-name="Path 156137" d="M697.954,135.772c-21.471-18.789-51.344-31.976-87.635-31.86-36.053.123-65.578,13.071-87.05,31.86Z" transform="translate(-185.139 328.971)" fill="none" stroke="#000" stroke-width="0.484"/>
          <path id="Path_156138" data-name="Path 156138" d="M592.745,104.347s-.585,19.953-12.716,30.219m-48.776-29.988s-2.683,17.04,13.887,29.641" transform="translate(-136.407 331.688)" fill="none" stroke="#241f21" stroke-miterlimit="10" stroke-width="0.161"/>
          <path id="Path_156139" data-name="Path 156139" d="M752.713,207.323C747.348,172.2,729.607,78.379,643.729,72.313V72.2a7.036,7.036,0,0,1-1.287-.116H631.36a3.288,3.288,0,0,0-1.055.116v.231c-86.927,5.95-103.851,99.889-109.215,135.009-5.017,38.974.231,88.1.231,88.1,150.292,18.782,231.746,0,231.746,0s4.663-49.247-.354-88.22" transform="translate(-212.245 130.696)" fill="#383838"/>
          <path id="Path_156140" data-name="Path 156140" d="M752.713,207.323C747.348,172.2,729.607,78.379,643.729,72.313V72.2a7.036,7.036,0,0,1-1.287-.116H631.36a3.288,3.288,0,0,0-1.055.116v.231c-86.927,5.95-103.851,99.889-109.215,135.009-5.017,38.974.231,88.1.231,88.1,150.292,18.782,231.746,0,231.746,0S757.73,246.3,752.713,207.323Z" transform="translate(-212.245 130.696)" fill="none" stroke="#241f21" stroke-miterlimit="10" stroke-width="0.484"/>
          <path id="Path_156141" data-name="Path 156141" d="M531.132,131.826a102.415,102.415,0,0,1,11.9-2.1l2.689-28.585,30.335-1.164,1.171,29.286a86.186,86.186,0,0,1,14.467,2.335,26.984,26.984,0,0,1,0,4.316,35.213,35.213,0,0,1-10.62,24.269H541.867c-6.882-6.3-11.083-17.5-10.735-28.354.115-.347,0,.231,0,0" transform="translate(-136.286 304.44)" fill="#fccfb2"/>
          <path id="Path_156142" data-name="Path 156142" d="M531.132,131.826a102.415,102.415,0,0,1,11.9-2.1l2.689-28.585,30.335-1.164,1.171,29.286a86.186,86.186,0,0,1,14.467,2.335,26.984,26.984,0,0,1,0,4.316,35.213,35.213,0,0,1-10.62,24.269H541.867c-6.882-6.3-11.083-17.5-10.735-28.354C531.247,131.479,531.132,132.057,531.132,131.826Z" transform="translate(-136.286 304.44)" fill="none" stroke="#000" stroke-width="0.484"/>
          <path id="Path_156143" data-name="Path 156143" d="M694.424,190.368a85.311,85.311,0,1,1-170.6,2.8l-.463-31.853a85.311,85.311,0,1,1,170.6-2.8Z" transform="translate(-184.646 146.364)" fill="#fccfb2"/>
          <path id="Path_156144" data-name="Path 156144" d="M694.424,190.368a85.311,85.311,0,1,1-170.6,2.8l-.463-31.853a85.311,85.311,0,1,1,170.6-2.8Z" transform="translate(-184.646 146.364)" fill="none" stroke="#000" stroke-width="0.484"/>
          <path id="Path_156145" data-name="Path 156145" d="M566.135,110.145a22.814,22.814,0,1,1-23.221-22.52,22.987,22.987,0,0,1,23.221,22.52" transform="translate(-202.333 227.519)" fill="#fccfb2"/>
          <path id="Path_156146" data-name="Path 156146" d="M566.135,110.145a22.814,22.814,0,1,1-23.221-22.52A22.987,22.987,0,0,1,566.135,110.145Z" transform="translate(-202.333 227.519)" fill="none" stroke="#000" stroke-width="0.242"/>
          <path id="Path_156147" data-name="Path 156147" d="M545.52,278.327l-21.587,5.249s-3.267-87.982,1.519-135.942c0,0,10.15-48.538,22.165-58.573C563.138,76.106,627.205,74,627.205,74S550.885,103.3,545.52,278.327" transform="translate(-187.783 142.656)" fill="#383838"/>
          <path id="Path_156148" data-name="Path 156148" d="M545.52,278.327l-21.587,5.249s-3.267-87.982,1.519-135.942c0,0,10.15-48.538,22.165-58.573C563.138,76.106,627.205,74,627.205,74S550.885,103.3,545.52,278.327Z" transform="translate(-187.783 142.656)" fill="none" stroke="#241f21" stroke-miterlimit="10" stroke-width="0.484"/>
          <path id="Path_156149" data-name="Path 156149" d="M536.343,77.407,633.427,236.8s8.632-75.027-18.789-113.538c-41.186-57.64-78.294-45.856-78.294-45.856" transform="translate(-103.695 157.686)" fill="#383838"/>
          <path id="Path_156150" data-name="Path 156150" d="M536.343,77.407,633.427,236.8s8.632-75.027-18.789-113.538C573.452,65.623,536.343,77.407,536.343,77.407Z" transform="translate(-103.695 157.686)" fill="none" stroke="#241f21" stroke-miterlimit="10" stroke-width="0.484"/>
          <path id="Path_156151" data-name="Path 156151" d="M521.316,227.878c-5.719-27.19,21.594-103.85,22.519-132.558.586-20.654,18.2-28.238,30.928-30.8,16.1-3.268,37.456-1.048,45.155,13.533,9.565,18.088,32.438,34.774,39.1,39.791,20.3,15.175,50.288,48.075,55.883,74.8Z" transform="translate(-202.206 75.366)" fill="#ed8766"/>
          <path id="Path_156152" data-name="Path 156152" d="M589.784,66.366a66,66,0,0,0-13.165,1.388C565.84,69.93,547.672,76.61,547.1,96.9c-.39,12.008-5.292,32.135-10.482,53.44-6.948,28.563-14.8,60.8-12.377,77.029l190.062-34.6c-6.485-26.236-35.677-57.691-54.828-72l-.954-.716c-8.01-6.015-29.3-22.006-38.641-39.661-4.034-7.641-14.524-14.025-30.1-14.025M521.466,231.428l-.347-1.67c-3.448-16.375,4.461-48.842,12.1-80.246,5.14-21.124,10-41.078,10.382-52.724.274-9.738,4.836-26.915,32.322-32.467,17.727-3.593,39.154-.528,47.056,14.437,8.972,16.96,29.8,32.6,37.644,38.5l.947.716c20.018,14.95,50.8,48.372,56.555,75.829l.369,1.764-1.771.318Z" transform="translate(-203.715 73.841)" fill="#241f21"/>
          <path id="Path_156153" data-name="Path 156153" d="M741.835,116.623a3.455,3.455,0,0,1-3.152,3.5L523.045,154.78a3.36,3.36,0,0,1-4.085-2.335l1.633-39.906a3.455,3.455,0,0,1,3.153-3.5L722.7,77.649a3.36,3.36,0,0,1,4.084,2.335Z" transform="translate(-211.981 164.68)" fill="#bf5936"/>
          <path id="Path_156154" data-name="Path 156154" d="M741.835,116.623a3.455,3.455,0,0,1-3.152,3.5L523.045,154.78a3.36,3.36,0,0,1-4.085-2.335l1.633-39.906a3.455,3.455,0,0,1,3.153-3.5L722.7,77.649a3.36,3.36,0,0,1,4.084,2.335Z" transform="translate(-211.981 164.68)" fill="none" stroke="#241f21" stroke-miterlimit="10" stroke-width="0.484"/>
          <path id="Path_156155" data-name="Path 156155" d="M605.353,95.305,531.49,99.028s14.35,25.325,38.273,23.7c23.452-1.4,35-22.057,35.59-27.421" transform="translate(-133.927 275.361)" fill="#fff"/>
          <path id="Path_156156" data-name="Path 156156" d="M540.306,102.392a9.667,9.667,0,0,0,18.319-6.181,9.521,9.521,0,0,0-11.668-6.188,9.679,9.679,0,0,0-6.651,12.37" transform="translate(-81.834 240.145)"/>
          <path id="Path_156157" data-name="Path 156157" d="M529.313,102.384A9.667,9.667,0,0,0,547.632,96.2a9.667,9.667,0,0,0-18.319,6.181" transform="translate(-150.307 240.153)"/>
          <path id="Path_156158" data-name="Path 156158" d="M618.02,95.353l-10.461.607c-6.138,5.118-18.9,9.145-33.993,9.818-14.372.651-27.313-1.706-34.2-5.95l-9.752.586a91.984,91.984,0,0,0,19.758,19.1c5.813-3.745,15.1-6.738,26.062-7.8s20.828.116,27.27,2.668A86.99,86.99,0,0,0,618.02,95.353" transform="translate(-145.631 275.66)" fill="#b22e66"/>
          <path id="Path_156159" data-name="Path 156159" d="M532.357,105.776c22.411,15.015,41.092,5.921,53.208-5.111C579.218,97.975,569.249,96.819,558.3,98c-10.851,1.041-20.249,4.056-25.946,7.779" transform="translate(-128.525 289.268)" fill="#e35c8f"/>
          <path id="Path_156160" data-name="Path 156160" d="M503.626,89.14c1.634-.231,25.086-6.535,25.086-6.535l2.1,28.354a155.439,155.439,0,0,0-16.685,9.34c-9.456,6.065-10.5-31.159-10.5-31.159" transform="translate(-307.503 196.248)" fill="#87573d"/>
          <path id="Path_156161" data-name="Path 156161" d="M491.642,97.423c2.566.347,41.771,3.036,41.771,3.036l-.694,21.7s-12.492.116-28.592,1.75-12.485-26.489-12.485-26.489" transform="translate(-384.318 288.555)" fill="#87573d"/>
          <path id="Path_156162" data-name="Path 156162" d="M494.862,111.341s-21.471,7.352-17.972,27.19c3.506,19.722,23.221,20.654,31.274,20.539,18.2,29.518,39.321,48.191,74.094,55.189v10.389s-26.489,6.42-36.87,11.437c-12.485,6.181-51.878,44.808-51.878,44.808H714.7s-24.038-40.962-88.329-55.2l.463-16.454c39.089-16.57,52.63-44.338,61.847-77.832,7.7-2.1,23.337-7.229,21.117-27.183s-24.616-23.575-24.616-23.575" transform="translate(-476.452 184.082)" fill="none" stroke="#241f21" stroke-miterlimit="10" stroke-width="0.484"/>
        </g>
      </g>
    </g>
  </g>
</svg>
